<svg width="60" height="60" viewBox="0 0 60 60" fill="none" xmlns="http://www.w3.org/2000/svg">
<path d="M56.7 41.2667C52.6 41.2667 48.6333 40.6 44.9333 39.4C43.7667 39 42.4667 39.3 41.5667 40.2L36.3333 46.7667C26.9 42.2667 18.0667 33.7667 13.3667 24L19.8667 18.4667C20.7667 17.5333 21.0333 16.2333 20.6667 15.0667C19.4333 11.3667 18.8 7.4 18.8 3.3C18.8 1.5 17.3 0 15.5 0H3.96667C2.16667 0 0 0.8 0 3.3C0 34.2667 25.7667 60 56.7 60C59.0667 60 60 57.9 60 56.0667V44.5667C60 42.7667 58.5 41.2667 56.7 41.2667Z" fill="#F29F05"/>
</svg>
