<svg width="74" height="58" viewBox="0 0 74 58" fill="none" xmlns="http://www.w3.org/2000/svg">
<path d="M16 28.7647H53.3333M16 28.7647L34.6667 12.2941M16 28.7647H6.66667L37 2M53.3333 28.7647L34.6667 12.2941M53.3333 28.7647L60.3333 34.9412H2M34.6667 12.2941L39.3333 8.17647L72 37" stroke="#F29F05" stroke-width="3" stroke-linecap="round" stroke-linejoin="round"/>
<path d="M14.165 57.4473H12.5244V55H5.96875V57.4473H4.30078L4.24609 53.6191H5.0459C5.44238 53.2363 5.75911 52.6803 5.99609 51.9512C6.23307 51.2174 6.38574 50.388 6.4541 49.4629L6.71387 45.0469H12.9893V53.6191H14.2539L14.165 57.4473ZM7.00098 53.6191H11.2666V46.4414H8.36133L8.19727 49.2441C8.07422 51.1172 7.67546 52.5755 7.00098 53.6191ZM21.9301 50.5566H17.8422V53.6191H22.6205V55H16.1127V45.0469H22.5727V46.4414H17.8422V49.1895H21.9301V50.5566ZM32.4159 45.0469V55H30.6932V46.4414H27.6444L27.4667 50.29C27.3983 51.4932 27.2502 52.4274 27.0223 53.0928C26.799 53.7536 26.4732 54.2367 26.0448 54.542C25.6164 54.8473 25.0422 55 24.3221 55H23.8846V53.6191L24.1581 53.5986C24.5546 53.5622 24.8599 53.4232 25.0741 53.1816C25.2929 52.9401 25.4569 52.5755 25.5663 52.0879C25.6802 51.5957 25.76 50.8734 25.8055 49.9209L25.997 45.0469H32.4159ZM36.763 48.8545H38.8001C39.5293 48.8545 40.165 48.9798 40.7073 49.2305C41.2497 49.4811 41.6621 49.8366 41.9446 50.2969C42.2272 50.7572 42.3685 51.2904 42.3685 51.8965C42.3685 52.8262 42.0517 53.5736 41.4183 54.1387C40.7894 54.7038 39.9303 54.9909 38.8411 55H35.0335V45.0469H36.763V48.8545ZM36.763 50.2422V53.6191H38.7933C39.3766 53.6191 39.8301 53.4619 40.1536 53.1475C40.4818 52.8285 40.6458 52.4069 40.6458 51.8828C40.6458 51.3815 40.4863 50.985 40.1673 50.6934C39.8483 50.4017 39.4062 50.2513 38.8411 50.2422H36.763ZM50.947 46.4414H47.8435V55H46.1277V46.4414H43.0515V45.0469H50.947V46.4414ZM57.5705 52.6826H53.715L52.9084 55H51.1105L54.8703 45.0469H56.4221L60.1887 55H58.384L57.5705 52.6826ZM54.2004 51.2881H57.0852L55.6428 47.1592L54.2004 51.2881ZM67.8507 45.8057V47.6035H69.1563V48.834H67.8507V52.9629C67.8507 53.2454 67.9053 53.4505 68.0147 53.5781C68.1287 53.7012 68.3292 53.7627 68.6163 53.7627C68.8077 53.7627 69.0014 53.7399 69.1973 53.6943V54.9795C68.8191 55.0843 68.4545 55.1367 68.1036 55.1367C66.8276 55.1367 66.1895 54.4326 66.1895 53.0244V48.834H64.9727V47.6035H66.1895V45.8057H67.8507Z" fill="#303030"/>
<circle cx="58" cy="13" r="3" stroke="#F29F05" stroke-width="2"/>
</svg>
